<?xml version="1.0" encoding="UTF-8" standalone="no"?><!-- Generator: Gravit.io --><svg xmlns="http://www.w3.org/2000/svg" xmlns:xlink="http://www.w3.org/1999/xlink" style="isolation:isolate" viewBox="0 0 83.665 100" width="83.665pt" height="100pt"><defs><clipPath id="_clipPath_tRySXq2UCEd28rSuXJv8GJ4J0yLYRkIu"><rect width="83.665" height="100"/></clipPath></defs><g clip-path="url(#_clipPath_tRySXq2UCEd28rSuXJv8GJ4J0yLYRkIu)"><rect width="83.665" height="100" style="fill:rgb(74,134,232)" fill-opacity="0"/><g><rect x="5.842" y="5.631" width="2.614" height="25.941" transform="matrix(1,0,0,1,0,0)" fill="rgb(239,239,239)"/><rect x="75.319" y="6.033" width="2.614" height="26.745" transform="matrix(1,0,0,1,0,0)" fill="rgb(239,239,239)"/><path d=" M 75.812 50.675 C 80.429 49.292 83.041 46.009 83.654 40.822 C 83.823 37.301 81.944 34.22 78.024 31.571 C 76.861 31.093 75.918 30.829 75.209 30.767 L 73.801 30.767 L 75.812 41.224 L 75.812 50.675 Z " fill="rgb(203,214,214)"/><path d=" M 7.853 50.675 C 3.236 49.292 0.624 46.009 0.01 40.822 C -0.158 37.301 1.721 34.22 5.641 31.571 C 6.804 31.093 7.747 30.829 8.456 30.767 L 9.864 30.767 L 7.853 41.224 L 7.853 50.675 Z " fill="rgb(203,214,214)"/><path d=" M 28.364 73.198 C 27.149 72.828 26.279 71.758 25.75 69.98 L 15.897 69.98 C 11.09 68.888 8.411 65.94 7.853 61.132 L 7.853 41.224 C 9.064 28.064 14.63 18.614 24.544 12.87 C 35.914 6.807 47.044 6.608 57.925 12.267 C 68.689 18.066 74.723 27.72 76.023 41.224 L 76.023 61.132 C 74.947 66.753 72.067 69.704 67.376 69.98 L 57.925 69.98 C 57.66 71.583 56.858 72.657 55.512 73.198 C 46.825 77.55 37.778 77.552 28.364 73.198 Z " fill="rgb(255,255,255)"/><path d=" M 28.364 73.198 C 27.149 72.828 26.279 71.758 25.75 69.98 L 15.897 69.98 C 11.09 68.888 8.411 65.94 7.853 61.132 C 9.232 64.463 11.781 66.275 14.288 66.562 L 68.784 66.562 C 72.069 66.595 74.484 64.787 76.023 61.132 C 74.947 66.753 72.067 69.704 67.376 69.98 L 57.925 69.98 C 57.66 71.583 56.858 72.657 55.512 73.198 C 46.825 77.55 37.778 77.552 28.364 73.198 Z " fill="rgb(216,210,213)"/><path d=" M 11.674 92.301 C 14.69 83.614 20.256 77.114 28.364 73.198 C 37.61 77.54 46.664 77.544 55.512 73.198 C 63.958 77.648 69.456 83.951 72.001 92.1 C 51.782 102.414 31.677 102.619 11.674 92.301 Z " fill="rgb(255,255,255)"/><path d=" M 20.723 59.926 L 61.545 60.127 C 65.238 60.174 67.452 58.5 68.181 55.099 L 68.181 39.816 C 66.274 29.75 61.182 22.781 52.898 18.903 C 45.02 15.892 37.85 15.894 31.381 18.903 C 23.126 22.663 17.9 29.636 15.696 39.816 L 15.696 55.099 C 16.306 58.464 17.983 60.075 20.723 59.926 Z " fill="rgb(53,56,73)"/><circle vector-effect="non-scaling-stroke" cx="30.174239821444473" cy="35.772884126472206" r="3.217476829684715" fill="rgb(80,223,255)"/><circle vector-effect="non-scaling-stroke" cx="53.50094683665864" cy="35.772884126472206" r="3.2174768296847134" fill="rgb(80,223,255)"/><path d=" M 34.196 43.637 L 49.68 43.637 C 50.235 43.637 50.67 44.087 50.65 44.642 C 50.581 46.62 49.444 48.969 47.267 50.675 C 43.654 53.059 40.103 53.061 36.609 50.675 C 34.408 48.812 33.271 46.467 33.219 44.642 C 33.203 44.087 33.641 43.637 34.196 43.637 Z " fill="rgb(80,223,255)"/><circle vector-effect="non-scaling-stroke" cx="7.048625108085574" cy="3.4185691315400075" r="3.418569131540009" fill="rgb(203,214,214)"/><circle vector-effect="non-scaling-stroke" cx="76.6265615500175" cy="3.4185691315400075" r="3.4185691315400106" fill="rgb(203,214,214)"/><path d=" M 17.908 95.117 C 19.866 85.026 23.488 77.855 28.767 73.198 L 55.512 73.198 C 61.075 79.364 64.496 86.338 65.768 94.916 C 50.054 101.557 34.105 101.762 17.908 95.117 Z " fill="rgb(238,239,241)"/></g></g></svg>