<?xml version="1.0" encoding="UTF-8" standalone="no"?><!-- Generator: Gravit.io --><svg xmlns="http://www.w3.org/2000/svg" xmlns:xlink="http://www.w3.org/1999/xlink" style="isolation:isolate" viewBox="0 0 1060 626.284" width="1060pt" height="626.284pt"><defs><clipPath id="_clipPath_uE00iszprZi3kOMECrIqBNcJcYChuNV1"><rect width="1060" height="626.284"/></clipPath></defs><g clip-path="url(#_clipPath_uE00iszprZi3kOMECrIqBNcJcYChuNV1)"><g><linearGradient id="_lgradient_1" x1="0.5" y1="0" x2="0.5000000000000001" y2="1" gradientTransform="matrix(624,0,0,626.024,217,0)" gradientUnits="userSpaceOnUse"><stop offset="0%" stop-opacity="1" style="stop-color:rgb(244,153,25)"/><stop offset="100%" stop-opacity="1" style="stop-color:rgb(238,74,36)"/></linearGradient><ellipse vector-effect="non-scaling-stroke" cx="529.0000000000005" cy="313.0117874596837" rx="312" ry="313.0117874596837" fill="url(#_lgradient_1)"/><path d=" M 328.441 171.079 L 336.104 199.048 L 329.908 225.63 L 349.052 246.306 L 362 293.565 L 349.462 297 L 337.571 253.6 L 315.441 229.594 L 322.509 198.626 L 315.903 174.514 L 328.441 171.079 Z " fill="rgb(239,239,239)"/><rect x="697.5" y="159" width="13" height="133" transform="matrix(1,0,0,1,0,0)" fill="rgb(239,239,239)"/><path d=" M 699.948 381 C 722.907 374.121 735.897 357.797 738.948 332 C 739.786 314.494 730.443 299.17 710.948 286 C 705.164 283.621 700.478 282.307 696.948 282 L 689.948 282 L 699.948 334 L 699.948 381 Z " fill="rgb(203,214,214)"/><path d=" M 362 381 C 339.041 374.121 326.051 357.797 323 332 C 322.162 314.494 331.506 299.17 351 286 C 356.784 283.621 361.471 282.307 365 282 L 372 282 L 362 334 L 362 381 Z " fill="rgb(203,214,214)"/><path d=" M 464 493 C 457.954 491.163 453.63 485.839 451 477 L 402 477 C 378.098 471.568 364.775 456.911 362 433 L 362 334 C 368.022 268.556 395.699 221.566 445 193 C 501.545 162.849 556.888 161.859 611 190 C 664.526 218.839 694.536 266.849 701 334 L 701 433 C 695.649 460.952 681.326 475.629 658 477 L 611 477 C 609.685 484.97 605.695 490.314 599 493 C 555.803 514.645 510.813 514.655 464 493 Z " fill="rgb(255,255,255)"/><path d=" M 464 493 C 457.954 491.163 453.63 485.839 451 477 L 402 477 C 378.098 471.568 364.775 456.911 362 433 C 368.857 449.564 381.533 458.574 394 460 L 665 460 C 681.334 460.167 693.344 451.177 701 433 C 695.649 460.952 681.326 475.629 658 477 L 611 477 C 609.685 484.97 605.695 490.314 599 493 C 555.803 514.645 510.813 514.655 464 493 Z " fill="rgb(216,210,213)"/><path d=" M 381 588 C 396 544.8 423.677 512.477 464 493 C 509.978 514.593 554.998 514.613 599 493 C 641 515.133 668.343 546.477 681 587 C 580.454 638.288 480.474 639.308 381 588 Z " fill="rgb(255,255,255)"/><path d=" M 426 427 L 629 428 C 647.367 428.233 658.377 419.91 662 403 L 662 327 C 652.521 276.943 627.197 242.287 586 223 C 546.826 208.028 511.169 208.038 479 223 C 437.953 241.699 411.963 276.376 401 327 L 401 403 C 404.033 419.733 412.377 427.743 426 427 Z " fill="rgb(53,56,73)"/><path d=" M 490.339 377.893 L 571.713 377.893 C 573.266 377.893 574.388 376.64 574.217 375.097 C 574.006 373.197 568.35 369.501 557.526 366.815 C 539.557 363.063 521.9 363.06 504.526 366.815 C 493.582 369.748 487.926 373.438 487.777 375.092 C 487.639 376.638 488.787 377.893 490.339 377.893 Z " fill="rgb(244,151,25)"/><path d=" M 301.859 164.883 C 299.379 155.834 304.713 146.474 313.762 143.995 C 322.811 141.516 332.171 146.85 334.65 155.899 C 337.129 164.948 331.796 174.307 322.747 176.787 C 313.697 179.266 304.338 173.932 301.859 164.883 Z " fill="rgb(203,214,214)"/><circle vector-effect="non-scaling-stroke" cx="704.0000000000008" cy="145.99999999999994" r="17" fill="rgb(203,214,214)"/><path d=" M 412 602 C 421.741 551.819 439.751 516.162 466 493 L 599 493 C 626.667 523.667 643.677 558.343 650 601 C 571.859 634.028 492.546 635.048 412 602 Z " fill="rgb(238,239,241)"/><path d=" M 804 163 L 988 163 C 1027.738 163 1060 195.238 1060 234.946 L 1060 234.946 C 1060 274.655 1027.738 306.893 988 306.893 L 804 306.893 C 764.262 306.893 732 274.655 732 234.946 L 732 234.946 C 732 195.238 764.262 163 804 163 Z " fill="rgb(53,56,73)"/><path d=" M 777 301 L 763 326 L 797 306 L 777 301 Z " fill="rgb(53,56,73)"/><path d=" M 791.25 247.421 L 811 247.421 L 811 252.871 L 784.75 252.871 L 784.75 217.871 L 810.3 217.871 L 810.3 223.321 L 791.25 223.321 L 791.25 232.421 L 808.15 232.421 L 808.15 237.771 L 791.25 237.771 L 791.25 247.421 L 791.25 247.421 Z  M 823.6 230.071 L 823.6 230.071 Q 826.3 225.871 833.1 225.871 L 833.1 225.871 L 833.1 231.821 L 833.1 231.821 Q 832.3 231.671 831.65 231.671 L 831.65 231.671 L 831.65 231.671 Q 828 231.671 825.95 233.796 L 825.95 233.796 L 825.95 233.796 Q 823.9 235.921 823.9 239.921 L 823.9 239.921 L 823.9 252.871 L 817.65 252.871 L 817.65 226.171 L 823.6 226.171 L 823.6 230.071 L 823.6 230.071 Z  M 844.35 230.071 L 844.35 230.071 Q 847.05 225.871 853.85 225.871 L 853.85 225.871 L 853.85 231.821 L 853.85 231.821 Q 853.05 231.671 852.4 231.671 L 852.4 231.671 L 852.4 231.671 Q 848.75 231.671 846.7 233.796 L 846.7 233.796 L 846.7 233.796 Q 844.65 235.921 844.65 239.921 L 844.65 239.921 L 844.65 252.871 L 838.4 252.871 L 838.4 226.171 L 844.35 226.171 L 844.35 230.071 L 844.35 230.071 Z  M 884 239.671 L 884 239.671 Q 884 240.321 883.9 241.521 L 883.9 241.521 L 862.95 241.521 L 862.95 241.521 Q 863.5 244.471 865.825 246.196 L 865.825 246.196 L 865.825 246.196 Q 868.15 247.921 871.6 247.921 L 871.6 247.921 L 871.6 247.921 Q 876 247.921 878.85 245.021 L 878.85 245.021 L 882.2 248.871 L 882.2 248.871 Q 880.4 251.021 877.65 252.121 L 877.65 252.121 L 877.65 252.121 Q 874.9 253.221 871.45 253.221 L 871.45 253.221 L 871.45 253.221 Q 867.05 253.221 863.7 251.471 L 863.7 251.471 L 863.7 251.471 Q 860.35 249.721 858.525 246.596 L 858.525 246.596 L 858.525 246.596 Q 856.7 243.471 856.7 239.521 L 856.7 239.521 L 856.7 239.521 Q 856.7 235.621 858.475 232.496 L 858.475 232.496 L 858.475 232.496 Q 860.25 229.371 863.4 227.621 L 863.4 227.621 L 863.4 227.621 Q 866.55 225.871 870.5 225.871 L 870.5 225.871 L 870.5 225.871 Q 874.4 225.871 877.475 227.596 L 877.475 227.596 L 877.475 227.596 Q 880.55 229.321 882.275 232.446 L 882.275 232.446 L 882.275 232.446 Q 884 235.571 884 239.671 L 884 239.671 L 884 239.671 Z  M 870.5 230.871 L 870.5 230.871 Q 867.5 230.871 865.425 232.646 L 865.425 232.646 L 865.425 232.646 Q 863.35 234.421 862.9 237.371 L 862.9 237.371 L 878.05 237.371 L 878.05 237.371 Q 877.65 234.471 875.6 232.671 L 875.6 232.671 L 875.6 232.671 Q 873.55 230.871 870.5 230.871 L 870.5 230.871 L 870.5 230.871 Z  M 909.6 226.171 L 915.85 226.171 L 915.85 252.871 L 909.9 252.871 L 909.9 249.471 L 909.9 249.471 Q 908.4 251.271 906.15 252.246 L 906.15 252.246 L 906.15 252.246 Q 903.9 253.221 901.3 253.221 L 901.3 253.221 L 901.3 253.221 Q 895.95 253.221 892.875 250.246 L 892.875 250.246 L 892.875 250.246 Q 889.8 247.271 889.8 241.421 L 889.8 241.421 L 889.8 226.171 L 896.05 226.171 L 896.05 240.571 L 896.05 240.571 Q 896.05 244.171 897.675 245.946 L 897.675 245.946 L 897.675 245.946 Q 899.3 247.721 902.3 247.721 L 902.3 247.721 L 902.3 247.721 Q 905.65 247.721 907.625 245.646 L 907.625 245.646 L 907.625 245.646 Q 909.6 243.571 909.6 239.671 L 909.6 239.671 L 909.6 226.171 L 909.6 226.171 Z  M 930 230.071 L 930 230.071 Q 932.7 225.871 939.5 225.871 L 939.5 225.871 L 939.5 231.821 L 939.5 231.821 Q 938.7 231.671 938.05 231.671 L 938.05 231.671 L 938.05 231.671 Q 934.4 231.671 932.35 233.796 L 932.35 233.796 L 932.35 233.796 Q 930.3 235.921 930.3 239.921 L 930.3 239.921 L 930.3 252.871 L 924.05 252.871 L 924.05 226.171 L 930 226.171 L 930 230.071 L 930 230.071 Z " fill="rgb(255,255,255)"/></g><path d=" M 991.392 206.001 C 988.884 206.001 986.377 207.192 984.95 209.571 L 957.804 254.939 C 954.918 259.742 958.612 266 964.223 266 L 1018.547 266 C 1024.177 266 1027.876 259.742 1025.003 254.939 L 997.834 209.571 C 996.471 207.324 994.02 205.966 991.392 206.001 Z  M 991.392 210.545 C 992.348 210.545 993.304 211.016 993.886 211.953 L 1021.032 257.304 C 1022.168 259.197 1020.907 261.382 1018.538 261.382 L 964.233 261.382 C 961.882 261.382 960.621 259.197 961.757 257.304 L 988.908 211.953 C 989.433 211.08 990.377 210.545 991.397 210.545 L 991.392 210.545 Z  M 989.046 224.436 L 989.046 247.527 L 993.664 247.527 L 993.664 224.436 L 989.046 224.436 Z  M 989.046 252.145 L 989.046 256.764 L 993.664 256.764 L 993.664 252.145 L 989.046 252.145 Z " fill="rgb(255,255,255)"/><path d=" M 472.017 288.081 L 467.017 293.081 L 479.434 305.526 L 467.017 317.951 L 472.017 323 L 484.462 310.554 L 496.908 323 L 501.907 317.951 L 489.49 305.526 L 501.907 293.081 L 496.908 288.081 L 484.462 300.498 L 472.017 288.081 Z " fill="rgb(244,151,25)"/><path d=" M 566 288.081 L 561 293.081 L 573.417 305.526 L 561 317.951 L 566 323 L 578.445 310.554 L 590.891 323 L 595.89 317.951 L 583.473 305.526 L 595.89 293.081 L 590.891 288.081 L 578.445 300.498 L 566 288.081 Z " fill="rgb(244,151,25)"/></g></svg>