<?xml version="1.0" encoding="UTF-8" standalone="no"?><!-- Generator: Gravit.io --><svg xmlns="http://www.w3.org/2000/svg" xmlns:xlink="http://www.w3.org/1999/xlink" style="isolation:isolate" viewBox="0 0 1060 626.284" width="1060pt" height="626.284pt"><defs><clipPath id="_clipPath_6n0jv48DDXdfgPTm6SuKSfsWGu42cNPI"><rect width="1060" height="626.284"/></clipPath></defs><g clip-path="url(#_clipPath_6n0jv48DDXdfgPTm6SuKSfsWGu42cNPI)"><g><linearGradient id="_lgradient_0" x1="0.5" y1="0" x2="0.5000000000000001" y2="1" gradientTransform="matrix(624,0,0,626.024,217,0)" gradientUnits="userSpaceOnUse"><stop offset="0%" stop-opacity="1" style="stop-color:rgb(244,153,25)"/><stop offset="100%" stop-opacity="1" style="stop-color:rgb(238,74,36)"/></linearGradient><ellipse vector-effect="non-scaling-stroke" cx="529.0000000000005" cy="313.0117874596837" rx="312" ry="313.0117874596837" fill="url(#_lgradient_0)"/><rect x="352" y="157" width="13" height="129" transform="matrix(1,0,0,1,0,0)" fill="rgb(239,239,239)"/><rect x="697.5" y="159" width="13" height="133" transform="matrix(1,0,0,1,0,0)" fill="rgb(239,239,239)"/><path d=" M 699.948 381 C 722.907 374.121 735.897 357.797 738.948 332 C 739.786 314.494 730.443 299.17 710.948 286 C 705.164 283.621 700.478 282.307 696.948 282 L 689.948 282 L 699.948 334 L 699.948 381 Z " fill="rgb(203,214,214)"/><path d=" M 362 381 C 339.041 374.121 326.051 357.797 323 332 C 322.162 314.494 331.506 299.17 351 286 C 356.784 283.621 361.471 282.307 365 282 L 372 282 L 362 334 L 362 381 Z " fill="rgb(203,214,214)"/><path d=" M 464 493 C 457.954 491.163 453.63 485.839 451 477 L 402 477 C 378.098 471.568 364.775 456.911 362 433 L 362 334 C 368.022 268.556 395.699 221.566 445 193 C 501.545 162.849 556.888 161.859 611 190 C 664.526 218.839 694.536 266.849 701 334 L 701 433 C 695.649 460.952 681.326 475.629 658 477 L 611 477 C 609.685 484.97 605.695 490.314 599 493 C 555.803 514.645 510.813 514.655 464 493 Z " fill="rgb(255,255,255)"/><path d=" M 464 493 C 457.954 491.163 453.63 485.839 451 477 L 402 477 C 378.098 471.568 364.775 456.911 362 433 C 368.857 449.564 381.533 458.574 394 460 L 665 460 C 681.334 460.167 693.344 451.177 701 433 C 695.649 460.952 681.326 475.629 658 477 L 611 477 C 609.685 484.97 605.695 490.314 599 493 C 555.803 514.645 510.813 514.655 464 493 Z " fill="rgb(216,210,213)"/><path d=" M 381 588 C 396 544.8 423.677 512.477 464 493 C 509.978 514.593 554.998 514.613 599 493 C 641 515.133 668.343 546.477 681 587 C 580.454 638.288 480.474 639.308 381 588 Z " fill="rgb(255,255,255)"/><path d=" M 426 427 L 629 428 C 647.367 428.233 658.377 419.91 662 403 L 662 327 C 652.521 276.943 627.197 242.287 586 223 C 546.826 208.028 511.169 208.038 479 223 C 437.953 241.699 411.963 276.376 401 327 L 401 403 C 404.033 419.733 412.377 427.743 426 427 Z " fill="rgb(53,56,73)"/><circle vector-effect="non-scaling-stroke" cx="473.0000000000006" cy="306.89285714285705" r="16" fill="rgb(244,151,25)"/><circle vector-effect="non-scaling-stroke" cx="589.0000000000006" cy="306.89285714285705" r="16" fill="rgb(244,151,25)"/><path d=" M 493 346 L 570 346 C 572.76 346 574.922 348.239 574.825 350.997 C 574.48 360.836 568.823 372.513 558 381 C 540.031 392.853 522.374 392.863 505 381 C 494.056 371.732 488.399 360.075 488.142 350.998 C 488.064 348.24 490.24 346 493 346 Z " fill="rgb(244,151,25)"/><circle vector-effect="non-scaling-stroke" cx="358.00000000000057" cy="145.99999999999994" r="17" fill="rgb(203,214,214)"/><circle vector-effect="non-scaling-stroke" cx="704.0000000000007" cy="145.99999999999994" r="17" fill="rgb(203,214,214)"/><path d=" M 412 602 C 421.741 551.819 439.751 516.162 466 493 L 599 493 C 626.667 523.667 643.677 558.343 650 601 C 571.859 634.028 492.546 635.048 412 602 Z " fill="rgb(238,239,241)"/><path d=" M 804 163 L 988 163 C 1027.738 163 1060 195.238 1060 234.946 L 1060 234.946 C 1060 274.655 1027.738 306.893 988 306.893 L 804 306.893 C 764.262 306.893 732 274.655 732 234.946 L 732 234.946 C 732 195.238 764.262 163 804 163 Z " fill="rgb(53,56,73)"/><path d=" M 777 301 L 763 326 L 797 306 L 777 301 Z " fill="rgb(53,56,73)"/><path d=" M 786.225 253.371 L 786.225 253.371 Q 782.175 253.371 778.4 252.221 L 778.4 252.221 L 778.4 252.221 Q 774.625 251.071 772.425 249.171 L 772.425 249.171 L 774.675 244.121 L 774.675 244.121 Q 776.825 245.821 779.95 246.896 L 779.95 246.896 L 779.95 246.896 Q 783.075 247.971 786.225 247.971 L 786.225 247.971 L 786.225 247.971 Q 790.125 247.971 792.05 246.721 L 792.05 246.721 L 792.05 246.721 Q 793.975 245.471 793.975 243.421 L 793.975 243.421 L 793.975 243.421 Q 793.975 241.921 792.9 240.946 L 792.9 240.946 L 792.9 240.946 Q 791.825 239.971 790.175 239.421 L 790.175 239.421 L 790.175 239.421 Q 788.525 238.871 785.675 238.171 L 785.675 238.171 L 785.675 238.171 Q 781.675 237.221 779.2 236.271 L 779.2 236.271 L 779.2 236.271 Q 776.725 235.321 774.95 233.296 L 774.95 233.296 L 774.95 233.296 Q 773.175 231.271 773.175 227.821 L 773.175 227.821 L 773.175 227.821 Q 773.175 224.921 774.75 222.546 L 774.75 222.546 L 774.75 222.546 Q 776.325 220.171 779.5 218.771 L 779.5 218.771 L 779.5 218.771 Q 782.675 217.371 787.275 217.371 L 787.275 217.371 L 787.275 217.371 Q 790.475 217.371 793.575 218.171 L 793.575 218.171 L 793.575 218.171 Q 796.675 218.971 798.925 220.471 L 798.925 220.471 L 796.875 225.521 L 796.875 225.521 Q 794.575 224.171 792.075 223.471 L 792.075 223.471 L 792.075 223.471 Q 789.575 222.771 787.225 222.771 L 787.225 222.771 L 787.225 222.771 Q 783.375 222.771 781.5 224.071 L 781.5 224.071 L 781.5 224.071 Q 779.625 225.371 779.625 227.521 L 779.625 227.521 L 779.625 227.521 Q 779.625 229.021 780.7 229.971 L 780.7 229.971 L 780.7 229.971 Q 781.775 230.921 783.425 231.471 L 783.425 231.471 L 783.425 231.471 Q 785.075 232.021 787.925 232.721 L 787.925 232.721 L 787.925 232.721 Q 791.825 233.621 794.325 234.596 L 794.325 234.596 L 794.325 234.596 Q 796.825 235.571 798.6 237.571 L 798.6 237.571 L 798.6 237.571 Q 800.375 239.571 800.375 242.971 L 800.375 242.971 L 800.375 242.971 Q 800.375 245.871 798.8 248.221 L 798.8 248.221 L 798.8 248.221 Q 797.225 250.571 794.025 251.971 L 794.025 251.971 L 794.025 251.971 Q 790.825 253.371 786.225 253.371 L 786.225 253.371 L 786.225 253.371 Z  M 825.825 226.171 L 832.075 226.171 L 832.075 252.871 L 826.125 252.871 L 826.125 249.471 L 826.125 249.471 Q 824.625 251.271 822.375 252.246 L 822.375 252.246 L 822.375 252.246 Q 820.125 253.221 817.525 253.221 L 817.525 253.221 L 817.525 253.221 Q 812.175 253.221 809.1 250.246 L 809.1 250.246 L 809.1 250.246 Q 806.025 247.271 806.025 241.421 L 806.025 241.421 L 806.025 226.171 L 812.275 226.171 L 812.275 240.571 L 812.275 240.571 Q 812.275 244.171 813.9 245.946 L 813.9 245.946 L 813.9 245.946 Q 815.525 247.721 818.525 247.721 L 818.525 247.721 L 818.525 247.721 Q 821.875 247.721 823.85 245.646 L 823.85 245.646 L 823.85 245.646 Q 825.825 243.571 825.825 239.671 L 825.825 239.671 L 825.825 226.171 L 825.825 226.171 Z  M 852.525 253.221 L 852.525 253.221 Q 848.375 253.221 845.075 251.471 L 845.075 251.471 L 845.075 251.471 Q 841.775 249.721 839.925 246.596 L 839.925 246.596 L 839.925 246.596 Q 838.075 243.471 838.075 239.521 L 838.075 239.521 L 838.075 239.521 Q 838.075 235.571 839.925 232.471 L 839.925 232.471 L 839.925 232.471 Q 841.775 229.371 845.05 227.621 L 845.05 227.621 L 845.05 227.621 Q 848.325 225.871 852.525 225.871 L 852.525 225.871 L 852.525 225.871 Q 856.475 225.871 859.45 227.471 L 859.45 227.471 L 859.45 227.471 Q 862.425 229.071 863.925 232.071 L 863.925 232.071 L 859.125 234.871 L 859.125 234.871 Q 857.975 233.021 856.25 232.096 L 856.25 232.096 L 856.25 232.096 Q 854.525 231.171 852.475 231.171 L 852.475 231.171 L 852.475 231.171 Q 848.975 231.171 846.675 233.446 L 846.675 233.446 L 846.675 233.446 Q 844.375 235.721 844.375 239.521 L 844.375 239.521 L 844.375 239.521 Q 844.375 243.321 846.65 245.596 L 846.65 245.596 L 846.65 245.596 Q 848.925 247.871 852.475 247.871 L 852.475 247.871 L 852.475 247.871 Q 854.525 247.871 856.25 246.946 L 856.25 246.946 L 856.25 246.946 Q 857.975 246.021 859.125 244.171 L 859.125 244.171 L 863.925 246.971 L 863.925 246.971 Q 862.375 249.971 859.4 251.596 L 859.4 251.596 L 859.4 251.596 Q 856.425 253.221 852.525 253.221 L 852.525 253.221 L 852.525 253.221 Z  M 881.175 253.221 L 881.175 253.221 Q 877.025 253.221 873.725 251.471 L 873.725 251.471 L 873.725 251.471 Q 870.425 249.721 868.575 246.596 L 868.575 246.596 L 868.575 246.596 Q 866.725 243.471 866.725 239.521 L 866.725 239.521 L 866.725 239.521 Q 866.725 235.571 868.575 232.471 L 868.575 232.471 L 868.575 232.471 Q 870.425 229.371 873.7 227.621 L 873.7 227.621 L 873.7 227.621 Q 876.975 225.871 881.175 225.871 L 881.175 225.871 L 881.175 225.871 Q 885.125 225.871 888.1 227.471 L 888.1 227.471 L 888.1 227.471 Q 891.075 229.071 892.575 232.071 L 892.575 232.071 L 887.775 234.871 L 887.775 234.871 Q 886.625 233.021 884.9 232.096 L 884.9 232.096 L 884.9 232.096 Q 883.175 231.171 881.125 231.171 L 881.125 231.171 L 881.125 231.171 Q 877.625 231.171 875.325 233.446 L 875.325 233.446 L 875.325 233.446 Q 873.025 235.721 873.025 239.521 L 873.025 239.521 L 873.025 239.521 Q 873.025 243.321 875.3 245.596 L 875.3 245.596 L 875.3 245.596 Q 877.575 247.871 881.125 247.871 L 881.125 247.871 L 881.125 247.871 Q 883.175 247.871 884.9 246.946 L 884.9 246.946 L 884.9 246.946 Q 886.625 246.021 887.775 244.171 L 887.775 244.171 L 892.575 246.971 L 892.575 246.971 Q 891.025 249.971 888.05 251.596 L 888.05 251.596 L 888.05 251.596 Q 885.075 253.221 881.175 253.221 L 881.175 253.221 L 881.175 253.221 Z  M 922.675 239.671 L 922.675 239.671 Q 922.675 240.321 922.575 241.521 L 922.575 241.521 L 901.625 241.521 L 901.625 241.521 Q 902.175 244.471 904.5 246.196 L 904.5 246.196 L 904.5 246.196 Q 906.825 247.921 910.275 247.921 L 910.275 247.921 L 910.275 247.921 Q 914.675 247.921 917.525 245.021 L 917.525 245.021 L 920.875 248.871 L 920.875 248.871 Q 919.075 251.021 916.325 252.121 L 916.325 252.121 L 916.325 252.121 Q 913.575 253.221 910.125 253.221 L 910.125 253.221 L 910.125 253.221 Q 905.725 253.221 902.375 251.471 L 902.375 251.471 L 902.375 251.471 Q 899.025 249.721 897.2 246.596 L 897.2 246.596 L 897.2 246.596 Q 895.375 243.471 895.375 239.521 L 895.375 239.521 L 895.375 239.521 Q 895.375 235.621 897.15 232.496 L 897.15 232.496 L 897.15 232.496 Q 898.925 229.371 902.075 227.621 L 902.075 227.621 L 902.075 227.621 Q 905.225 225.871 909.175 225.871 L 909.175 225.871 L 909.175 225.871 Q 913.075 225.871 916.15 227.596 L 916.15 227.596 L 916.15 227.596 Q 919.225 229.321 920.95 232.446 L 920.95 232.446 L 920.95 232.446 Q 922.675 235.571 922.675 239.671 L 922.675 239.671 L 922.675 239.671 Z  M 909.175 230.871 L 909.175 230.871 Q 906.175 230.871 904.1 232.646 L 904.1 232.646 L 904.1 232.646 Q 902.025 234.421 901.575 237.371 L 901.575 237.371 L 916.725 237.371 L 916.725 237.371 Q 916.325 234.471 914.275 232.671 L 914.275 232.671 L 914.275 232.671 Q 912.225 230.871 909.175 230.871 L 909.175 230.871 L 909.175 230.871 Z  M 907.825 222.521 L 899.125 215.671 L 906.475 215.671 L 913.225 222.521 L 907.825 222.521 L 907.825 222.521 Z  M 936.925 253.221 L 936.925 253.221 Q 933.675 253.221 930.575 252.371 L 930.575 252.371 L 930.575 252.371 Q 927.475 251.521 925.625 250.221 L 925.625 250.221 L 928.025 245.471 L 928.025 245.471 Q 929.825 246.671 932.35 247.396 L 932.35 247.396 L 932.35 247.396 Q 934.875 248.121 937.325 248.121 L 937.325 248.121 L 937.325 248.121 Q 942.925 248.121 942.925 245.171 L 942.925 245.171 L 942.925 245.171 Q 942.925 243.771 941.5 243.221 L 941.5 243.221 L 941.5 243.221 Q 940.075 242.671 936.925 242.171 L 936.925 242.171 L 936.925 242.171 Q 933.625 241.671 931.55 241.021 L 931.55 241.021 L 931.55 241.021 Q 929.475 240.371 927.95 238.746 L 927.95 238.746 L 927.95 238.746 Q 926.425 237.121 926.425 234.221 L 926.425 234.221 L 926.425 234.221 Q 926.425 230.421 929.6 228.146 L 929.6 228.146 L 929.6 228.146 Q 932.775 225.871 938.175 225.871 L 938.175 225.871 L 938.175 225.871 Q 940.925 225.871 943.675 226.496 L 943.675 226.496 L 943.675 226.496 Q 946.425 227.121 948.175 228.171 L 948.175 228.171 L 945.775 232.921 L 945.775 232.921 Q 942.375 230.921 938.125 230.921 L 938.125 230.921 L 938.125 230.921 Q 935.375 230.921 933.95 231.746 L 933.95 231.746 L 933.95 231.746 Q 932.525 232.571 932.525 233.921 L 932.525 233.921 L 932.525 233.921 Q 932.525 235.421 934.05 236.046 L 934.05 236.046 L 934.05 236.046 Q 935.575 236.671 938.775 237.221 L 938.775 237.221 L 938.775 237.221 Q 941.975 237.721 944.025 238.371 L 944.025 238.371 L 944.025 238.371 Q 946.075 239.021 947.55 240.571 L 947.55 240.571 L 947.55 240.571 Q 949.025 242.121 949.025 244.971 L 949.025 244.971 L 949.025 244.971 Q 949.025 248.721 945.775 250.971 L 945.775 250.971 L 945.775 250.971 Q 942.525 253.221 936.925 253.221 L 936.925 253.221 L 936.925 253.221 Z " fill="rgb(255,255,255)"/></g><path d=" M 965.871 221.08 C 967.881 222.824 970.342 223.78 973.224 223.906 C 975.249 227.168 977.807 228.94 979.972 229.91 C 981.393 230.538 982.312 231.942 982.32 233.495 L 982.32 238.683 L 976.022 238.683 C 975.249 238.683 974.616 239.316 974.616 240.089 L 974.616 242.901 L 972.507 242.901 C 971.734 242.901 971.101 243.533 971.101 244.307 L 971.101 263.526 C 971.101 264.299 971.734 264.932 972.507 264.932 L 1000.471 264.932 C 1001.244 264.932 1001.877 264.299 1001.877 263.526 L 1001.877 244.307 C 1001.877 243.533 1001.244 242.901 1000.471 242.901 L 998.362 242.901 L 998.362 240.089 C 998.362 239.316 997.73 238.683 996.956 238.683 L 990.222 238.683 L 990.222 233.523 C 990.222 231.977 991.15 230.571 992.584 229.938 C 994.763 228.982 997.336 227.196 999.375 223.92 C 1002.243 223.78 1004.703 222.838 1006.714 221.095 C 1011.859 216.61 1012 208.483 1012 208.132 C 1012.003 207.795 1011.871 207.471 1011.634 207.232 C 1011.396 206.991 1011.073 206.855 1010.735 206.852 L 1003.185 206.852 C 1003.241 205.474 1003.255 204.532 1003.269 204.434 C 1003.269 204.054 1003.128 203.689 1002.861 203.422 C 1002.598 203.153 1002.239 203.002 1001.863 203 L 970.749 203 C 970.374 203.002 970.014 203.153 969.751 203.422 C 969.484 203.689 969.344 204.054 969.344 204.434 C 969.344 204.532 969.358 205.474 969.428 206.852 L 961.85 206.852 C 961.512 206.852 961.189 206.993 960.95 207.232 C 960.713 207.471 960.582 207.795 960.584 208.132 C 960.584 208.469 960.725 216.596 965.871 221.08 Z  M 987.41 233.509 L 987.41 238.669 L 985.132 238.669 L 985.132 233.481 C 985.132 230.824 983.558 228.42 981.111 227.337 C 976.992 225.509 974.222 221.46 973.097 215.625 C 972.493 212.504 972.268 208.075 972.184 205.826 L 1000.415 205.826 C 1000.331 208.075 1000.106 212.504 999.501 215.625 C 998.376 221.474 995.593 225.537 991.445 227.365 C 989 228.431 987.417 230.842 987.41 233.509 Z  M 999.065 262.12 L 973.913 262.12 L 973.913 245.713 L 999.065 245.713 L 999.065 262.12 L 999.065 262.12 Z  M 995.55 242.901 L 977.428 242.901 L 977.428 241.495 L 995.55 241.495 L 995.55 242.901 L 995.55 242.901 Z  M 1002.791 212.546 L 1005.026 212.546 C 1004.745 213.699 1004.07 215.654 1002.496 216.961 C 1002.341 217.088 1002.186 217.2 1002.018 217.313 C 1002.102 216.933 1002.186 216.553 1002.271 216.16 C 1002.482 215.035 1002.65 213.798 1002.791 212.546 L 1002.791 212.546 Z  M 970.342 216.16 C 970.426 216.567 970.51 216.947 970.595 217.327 C 970.426 217.214 970.257 217.088 970.089 216.947 C 968.514 215.639 967.839 213.685 967.558 212.532 L 969.808 212.532 C 969.962 213.798 970.131 215.035 970.342 216.16 L 970.342 216.16 Z  M 1009.385 209.383 C 1009.132 211.647 1008.246 216.413 1005.055 219.197 C 1003.86 220.237 1002.425 220.912 1000.781 221.221 C 1000.977 220.743 1001.174 220.237 1001.357 219.703 C 1002.341 219.337 1003.227 218.803 1004.014 218.072 C 1006.784 215.485 1007.037 211.633 1007.037 211.604 C 1007.023 211.112 1006.615 210.719 1006.123 210.719 L 1002.974 210.719 C 1003.016 210.269 1003.044 209.819 1003.072 209.383 L 1009.385 209.383 L 1009.385 209.383 Z  M 969.554 209.383 C 969.583 209.819 969.611 210.269 969.653 210.719 L 966.475 210.719 C 965.983 210.719 965.576 211.112 965.562 211.604 C 965.562 211.647 965.815 215.485 968.584 218.072 C 969.372 218.803 970.271 219.351 971.27 219.703 C 971.452 220.223 971.635 220.729 971.846 221.207 C 970.187 220.898 968.753 220.237 967.544 219.182 C 964.338 216.399 963.453 211.647 963.214 209.369 L 969.554 209.383 L 969.554 209.383 Z " fill="rgb(255,255,255)"/></g></svg>